<svg xmlns="http://www.w3.org/2000/svg" id="Layer_1" version="1.1" viewBox="0 0 234.78 94.57"><defs></defs><path d="m38 35.7-3.44 2.72c-2.61-3.04-5.89-4.56-9.84-4.56-3.63 0-6.68 1.24-9.16 3.72-2.48 2.48-3.72 5.53-3.72 9.16s1.24 6.68 3.72 9.16c2.48 2.48 5.53 3.72 9.16 3.72 3.89 0 7.09-1.44 9.6-4.32l3.52 2.72A17.16 17.16 0 0 1 32 62.46c-2.24 1.04-4.67 1.56-7.28 1.56-4.69 0-8.75-1.71-12.16-5.12s-5.12-7.47-5.12-12.16 1.71-8.88 5.12-12.24c3.41-3.36 7.47-5.04 12.16-5.04 2.72 0 5.2.53 7.44 1.6s4.19 2.61 5.84 4.64Zm32.15 22.96c-3.47 3.57-7.63 5.36-12.48 5.36s-8.75-1.71-12.16-5.12-5.12-7.47-5.12-12.16 1.71-8.88 5.12-12.24c3.41-3.36 7.47-5.04 12.16-5.04s9.01 1.79 12.48 5.36l4.8-4.48v32.72l-4.8-4.4Zm-12.48-24.8c-3.63 0-6.68 1.24-9.16 3.72-2.48 2.48-3.72 5.53-3.72 9.16s1.24 6.68 3.72 9.16c2.48 2.48 5.53 3.72 9.16 3.72s6.61-1.25 9.12-3.76 3.76-5.55 3.76-9.12-1.25-6.61-3.76-9.12c-2.51-2.51-5.55-3.76-9.12-3.76Zm26.04.88h-5.92v-4.4h5.92v-9.2l4.4-2.16v11.36h5.84v4.4h-5.84v28.32h-4.4V34.74Zm38.6 23.92c-3.47 3.57-7.63 5.36-12.48 5.36s-8.75-1.71-12.16-5.12-5.12-7.47-5.12-12.16 1.71-8.88 5.12-12.24c3.41-3.36 7.47-5.04 12.16-5.04s9.01 1.79 12.48 5.36l4.8-4.48v32.72l-4.8-4.4Zm-12.48-24.8c-3.63 0-6.68 1.24-9.16 3.72-2.48 2.48-3.72 5.53-3.72 9.16s1.24 6.68 3.72 9.16c2.48 2.48 5.53 3.72 9.16 3.72s6.61-1.25 9.12-3.76 3.76-5.55 3.76-9.12-1.25-6.61-3.76-9.12c-2.51-2.51-5.55-3.76-9.12-3.76Zm39.36 30.16c-5.12 0-9.41-1.92-12.88-5.76v26.56h-4.4V30.34l4.8 4.48c3.47-3.57 7.63-5.36 12.48-5.36s8.88 1.68 12.24 5.04c3.36 3.36 5.04 7.44 5.04 12.24s-1.68 8.75-5.04 12.16c-3.36 3.41-7.44 5.12-12.24 5.12Zm0-4.4c3.63 0 6.68-1.24 9.16-3.72 2.48-2.48 3.72-5.53 3.72-9.16s-1.24-6.68-3.72-9.16c-2.48-2.48-5.53-3.72-9.16-3.72s-6.61 1.25-9.12 3.76c-2.51 2.51-3.76 5.55-3.76 9.12s1.25 6.61 3.76 9.12c2.51 2.51 5.55 3.76 9.12 3.76Zm46.96-29.28v32.72l-3.76-3.04c-2.51 2.61-5.6 3.92-9.28 3.92s-6.77-1.25-9.28-3.76-3.76-5.6-3.76-9.28V30.34h4.4V50.9c0 2.4.87 4.44 2.6 6.12 1.73 1.68 3.75 2.52 6.04 2.52 2.51 0 4.57-.87 6.2-2.6s2.44-3.75 2.44-6.04V30.34h4.4Zm4.8 32.72V8.66h4.4v54.4h-4.4Zm13.92-28.32h-5.92v-4.4h5.92v-9.2l4.4-2.16v11.36h5.84v4.4h-5.84v28.32h-4.4V34.74Z" class="st0"></path><path d="M165 84.39h-1.97l2.51-9.36c.3-1.12.17-2.03-.39-2.71-.56-.68-1.34-1.02-2.34-1.02s-1.94.34-2.87 1.02c-.94.68-1.55 1.58-1.86 2.71l-2.51 9.36h-1.97l2.51-9.36c.3-1.12.17-2.03-.39-2.71-.56-.68-1.34-1.02-2.34-1.02s-1.94.34-2.87 1.02a4.75 4.75 0 0 0-1.86 2.71l-2.51 9.36h-1.97l3.93-14.67 1.3 1.29c1.42-1.12 2.93-1.69 4.5-1.69.96 0 1.8.23 2.54.68.74.45 1.25 1.05 1.53 1.79 1.59-1.65 3.38-2.47 5.36-2.47.84 0 1.55.16 2.15.47.6.31 1.08.71 1.44 1.2.36.49.6 1.08.73 1.76.13.68.08 1.44-.14 2.28L165 84.39Zm13.4-15.07c2.15 0 3.78.75 4.88 2.26 1.1 1.51 1.37 3.34.79 5.49s-1.8 3.92-3.72 5.45c-1.92 1.53-3.95 2.3-6.1 2.3s-3.72-.76-4.84-2.3c-1.12-1.53-1.4-3.35-.84-5.45s1.83-3.98 3.77-5.49c1.93-1.51 3.95-2.26 6.06-2.26Zm-.53 1.98c-1.63 0-3.14.56-4.55 1.67-1.41 1.11-2.33 2.48-2.77 4.11s-.25 3 .57 4.11c.81 1.11 2.03 1.67 3.66 1.67s3.11-.56 4.54-1.69 2.35-2.49 2.78-4.09.23-2.96-.59-4.09c-.82-1.12-2.04-1.69-3.64-1.69Zm11.37.39h-2.65l.53-1.97h2.65l1.11-4.13 2.23-.97-1.36 5.09h2.62l-.53 1.97h-2.62l-3.4 12.7h-1.97l3.4-12.7Zm8.27-7.71h1.97l-.58 2.15h-1.97l.58-2.15Zm-1.53 5.74h1.97l-3.93 14.67h-1.97l3.93-14.67Zm11.44-.4c2.15 0 3.78.75 4.88 2.26 1.1 1.51 1.37 3.34.79 5.49s-1.8 3.92-3.72 5.45c-1.92 1.53-3.95 2.3-6.1 2.3s-3.72-.76-4.84-2.3c-1.12-1.53-1.4-3.35-.84-5.45s1.83-3.98 3.77-5.49c1.93-1.51 3.95-2.26 6.06-2.26Zm-.53 1.98c-1.63 0-3.14.56-4.55 1.67-1.41 1.11-2.33 2.48-2.77 4.11s-.25 3 .57 4.11c.81 1.11 2.03 1.67 3.66 1.67s3.11-.56 4.54-1.69 2.35-2.49 2.78-4.09.23-2.96-.59-4.09c-.82-1.12-2.04-1.69-3.64-1.69Zm5.85 13.09 3.93-14.67 1.32 1.36c1.44-1.17 2.98-1.76 4.63-1.76s2.89.56 3.71 1.69c.82 1.12 1.01 2.51.57 4.16l-2.47 9.22h-1.97l2.47-9.22c.3-1.12.17-2.05-.38-2.78s-1.38-1.09-2.45-1.09-2.09.38-3.05 1.13c-.95.75-1.58 1.67-1.86 2.74l-2.47 9.22h-1.97Z" class="st0"></path></svg>